<svg width="44" height="45" viewBox="0 0 44 45" fill="none" xmlns="http://www.w3.org/2000/svg">
<path d="M16.9951 21.782C16.8037 21.9734 16.7079 22.2128 16.7079 22.4522C16.7079 22.6917 16.8037 22.9311 16.9951 23.1224L22.5961 28.7235C22.9792 29.1065 23.5535 29.1065 23.9366 28.7235C24.3196 28.3405 24.3196 27.7662 23.9366 27.3831L19.9632 23.4097L42.4153 23.4097C42.942 23.4097 43.3727 22.9789 43.3727 22.4523C43.3727 21.9257 42.9419 21.4949 42.4153 21.4949L20.011 21.4949L23.9844 17.5215C24.3675 17.1385 24.3675 16.5642 23.9844 16.1811C23.6014 15.7981 23.0271 15.7981 22.644 16.1811L16.9951 21.782ZM18.6226 44.5693L24.8939 35.6172C25.181 35.1864 25.0852 34.564 24.6544 34.2768C24.2236 33.9896 23.6012 34.0854 23.314 34.5162L17.7607 42.415L2.10641 22.2607L17.8086 2.53721L23.3619 10.2447C23.6491 10.6755 24.2715 10.7713 24.7023 10.4841C25.1331 10.1969 25.2289 9.57445 24.9417 9.14368L18.6224 0.383021C18.431 0.143591 18.1916 -1.1007e-06 17.8564 -1.11536e-06C17.5692 -1.12791e-06 17.282 0.143591 17.0903 0.383021L0.191333 21.6863C0.0477438 21.8776 -8.59407e-06 22.0693 -8.60244e-06 22.2606C-8.6108e-06 22.452 0.0477399 22.6914 0.191333 22.835L17.0903 44.617C17.2817 44.8564 17.5692 45 17.8564 45C18.1439 44.9522 18.4311 44.8087 18.6224 44.5696L18.6226 44.5693Z" fill="#BB9E54"/>
</svg>
