<svg width="44" height="45" viewBox="0 0 44 45" fill="none" xmlns="http://www.w3.org/2000/svg">
<path d="M26.3776 21.782C26.569 21.9734 26.6648 22.2128 26.6648 22.4522C26.6648 22.6917 26.569 22.9311 26.3776 23.1224L20.7766 28.7235C20.3935 29.1065 19.8192 29.1065 19.4361 28.7235C19.0531 28.3405 19.0531 27.7662 19.4361 27.3831L23.4096 23.4097L0.957365 23.4097C0.430751 23.4097 1.00444e-06 22.9789 9.81422e-07 22.4523C9.58403e-07 21.9257 0.430776 21.4949 0.957365 21.4949L23.3617 21.4949L19.3883 17.5215C19.0052 17.1385 19.0052 16.5642 19.3883 16.1811C19.7713 15.7981 20.3456 15.7981 20.7287 16.1811L26.3776 21.782ZM24.7501 44.5693L18.4789 35.6172C18.1917 35.1864 18.2875 34.564 18.7183 34.2768C19.1491 33.9896 19.7715 34.0854 20.0587 34.5162L25.612 42.415L41.2663 22.2607L25.5641 2.53721L20.0108 10.2447C19.7237 10.6755 19.1012 10.7713 18.6704 10.4841C18.2396 10.1969 18.1438 9.57445 18.431 9.14368L24.7503 0.383021C24.9417 0.143591 25.1811 -1.1007e-06 25.5164 -1.11536e-06C25.8035 -1.12791e-06 26.0907 0.143591 26.2824 0.383021L43.1814 21.6863C43.325 21.8776 43.3727 22.0693 43.3727 22.2606C43.3727 22.452 43.325 22.6914 43.1814 22.835L26.2824 44.617C26.0911 44.8564 25.8035 45 25.5164 45C25.2288 44.9522 24.9417 44.8087 24.7503 44.5696L24.7501 44.5693Z" fill="#BB9E54"/>
</svg>
