<svg width="65" height="45" viewBox="0 0 65 45" fill="none" xmlns="http://www.w3.org/2000/svg">
<path d="M42.9982 44.1844H0V0H42.9982V15.1175H41.0049V2.0483H1.99122V42.1361H41.0049V28.9682H42.9982V44.1844Z" fill="white"/>
<path d="M8.78369 17.5547H10.7812V21.4666L13.6395 17.5547H16.036L12.7536 21.6985L16.2972 26.5336H13.7649L10.7812 22.261V26.5336H8.78369V17.5547Z" fill="white"/>
<path d="M21.5063 24.6824C23.1172 24.6824 23.953 23.5123 23.953 22.0437C23.953 20.4505 22.8748 19.4049 21.5063 19.4049C20.1022 19.4049 19.0616 20.4505 19.0616 22.0437C19.0616 23.5359 20.1502 24.6824 21.5063 24.6824ZM21.5063 17.5391C24.0867 17.5391 26.0132 19.2675 26.0132 22.0437C26.0132 24.6824 24.0867 26.5483 21.5063 26.5483C18.9279 26.5483 17.0015 24.8177 17.0015 22.0437C17.0015 19.5165 18.8067 17.5391 21.5063 17.5391Z" fill="white"/>
<path d="M34.4125 26.5331L30.2692 21.1461V26.5331H28.395V17.5562H29.9934L34.1388 22.9668L34.1346 17.5562H36.0067L36.0109 26.5331H34.4125Z" fill="white"/>
<path d="M38.4144 17.5547H45.6543V19.4784H43.0321V26.5336H41.0346V19.4784H38.4144V17.5547Z" fill="white"/>
<path d="M55.3424 22.6712C55.3424 25.4151 53.6458 26.5315 51.7737 26.5315C49.5276 26.5315 47.9668 25.2111 47.9668 22.581V17.5591H49.9643V22.1451C49.9643 23.5429 50.3759 24.6078 51.7737 24.6078C52.9834 24.6078 53.3449 23.6975 53.3449 22.2611V17.5591H55.3424V22.6712Z" fill="white"/>
<path d="M59.7411 19.5091V21.4972H60.4641C61.2267 21.4972 61.8243 21.2138 61.8243 20.4581C61.8243 19.9578 61.5778 19.5069 60.6166 19.5069C60.3157 19.5069 60.1528 19.4962 59.7411 19.5091ZM57.7437 26.532V17.5596C58.2305 17.5596 60.4641 17.5596 60.7148 17.5596C63.0989 17.5596 63.9472 18.7769 63.9472 20.4323C63.9472 22.0984 62.9484 22.779 62.4741 23.0238L65.0002 26.532H62.5786L60.4766 23.421H59.7411V26.532H57.7437Z" fill="white"/>
</svg>
